<?xml version="1.0" encoding="UTF-8"?>
<!-- Created with Inkscape (http://www.inkscape.org/) -->
<svg width="32" height="32" version="1.1" viewBox="0 0 32 32" xml:space="preserve" xmlns="http://www.w3.org/2000/svg"><g transform="matrix(1.97 0 0 1.97 -205 -33.3)" fill="#0f0" stroke-width="0"><path d="m106 20.1 4.2-2.46 6.94 3.97-0.0136 7.92-4.18 2.43-6.89-4.03 0.669-0.137 6.21 3.65 3.52-2.06-6.23-3.62 0.218-0.355 6.23 3.56 0.0136-6.88-3.52 2.03v1.9l-0.464-0.287v-1.62l0.232-0.341 3.52-2.05-6.21-3.58-3.52 2.01z" style="paint-order:stroke fill markers"/><path d="m107 20.2 6.21 3.62-0.232 0.341-6.21-3.55 0.0273 6.84 3.54-1.98-0.0273-1.9 0.451 0.246-0.0273 1.64-0.218 0.355-3.51 2.03-0.669 0.137-0.0547-7.84z" style="paint-order:stroke fill markers"/><path d="m107 20.2 6.21 3.62-0.232 0.341-6.21-3.55 0.0273 6.84 3.54-1.98-0.0273-1.9 0.451 0.246-0.0273 1.64-0.218 0.355-3.51 2.03-0.669 0.137-0.0547-7.84z" style="paint-order:stroke fill markers"/><path d="m110 18.6-2.62 1.65 5.37 3.17 2.61-1.53-0.0136-0.246-0.71 0.15-0.314 0.205-4.22-2.44-0.218 0.0136-1.43 0.887 0.437 0.314 0.123-0.164v0.205l0.423 0.246 0.0136-0.683 0.382-0.164-0.0409 0.983 0.478 0.246 0.0136-1.27 0.341 0.232 0.0136 1.27 0.505 0.287v-1.37l2.72 1.67-1.04 0.601-4.71-2.61 1.91-1.12z" style="paint-order:stroke fill markers"/><path d="m110 18.6 5.34 3.04-0.71 0.15-4.61-2.66z" style="paint-order:stroke fill markers"/><path d="m114 26.2v-1.82l2.61-1.53 0.109 0.041 0.123 0.109 0.0273 5.01-0.109 0.15-0.15 0.041-0.191-0.0683-5.08-2.98 0.041-1.64 1.49 0.86v1.19l-0.464-0.259v-0.765l-0.587-0.314 0.0136 0.778 4.59 2.57-0.0136-4.08-0.382 0.218 0.0409 3.62-0.0136 0.0683-0.451-0.273-0.0273-3.18-1.09 0.669-0.0409 1.86z" style="paint-order:stroke fill markers"/><path d="m111 23.6-3.78-2.23-0.177 0.041-0.0819 0.177v5.01l0.0683 0.123 0.15 0.0546 2.58-1.47 0.0273-1.91-0.464-0.273 0.0409 1.91-1.12 0.642v-3.17l-0.478-0.3v3.73l-0.355 0.246v-4.19l3.58 2.13z" style="paint-order:stroke fill markers"/><path d="m111 23.6-3.78-2.23-0.177 0.041-0.0819 0.177v5.01l0.0683 0.123 0.15 0.0546 2.58-1.47 0.0273-1.91-0.464-0.273 0.0409 1.91-1.12 0.642v-3.17l-0.478-0.3v3.73l-0.355 0.246v-4.19l3.58 2.13z" style="paint-order:stroke fill markers"/><path d="m108 27.9v-0.205l2.62-1.49 5.26 3 0.0137 0.205-0.0273 0.164-2.5 1.46-0.177-0.0819-0.0819-0.505 0.451-0.041 1.68-1.02-0.355-0.205-1.37 0.792 0.0136 0.451-0.478 0.041 0.0546-0.464-4.11-2.4 0.505-0.246 3.78 2.25 1.2-0.655-0.177-0.164 0.0273 0.191 0.0819 0.164-0.546 0.123 0.0273-0.683-0.355-0.177 0.0136 1.04-0.341 0.3-0.205-0.164 0.0819-0.0546 0.0136-1.42-0.382-0.164 0.0136 1.42-0.464-0.164 0.041-1.57-1.73-0.887-1.88 1.11 4.49 2.61 0.041 0.56z" style="paint-order:stroke fill markers"/></g></svg>
